<?xml version="1.0" encoding="utf-8"?>
<!-- Generator: Adobe Illustrator 26.3.1, SVG Export Plug-In . SVG Version: 6.00 Build 0)  -->
<svg version="1.1" xmlns="http://www.w3.org/2000/svg" xmlns:xlink="http://www.w3.org/1999/xlink" x="0px" y="0px"
	 viewBox="0 0 360 56.69" style="enable-background:new 0 0 360 56.69;" xml:space="preserve">
<style type="text/css">
	.st0{fill:none;}
	.st1{fill-rule:evenodd;clip-rule:evenodd;fill:#00003C;}
</style>
<g id="BoundingBox">
	<rect class="st0" width="360" height="56.69"/>
</g>
<g id="TUeV_NORD_GROUP">
	<path class="st1" d="M248.81,16.7v11.47h8.56c3.58,0,5.82-2.15,5.82-5.73c0-3.58-2.23-5.73-5.82-5.73H248.81z M266.7,42.52h-3.09
		l-6.34-11.82h-8.46v11.82h-2.73V14.17h11.29c5,0,8.55,3.38,8.55,8.26c0,6.35-5.67,7.84-5.73,7.86l-0.21,0.06L266.7,42.52z
		 M331.79,16.7v12.29h7.95c3.77,0,6.14-2.37,6.14-6.14c0-3.77-2.37-6.14-6.14-6.14H331.79z M331.79,42.52h-2.73V14.17h10.68
		c5.15,0,8.88,3.63,8.88,8.67c0,5.04-3.72,8.67-8.88,8.67h-7.95V42.52z M312.69,43.38c-6.23,0-11.5-5.27-11.5-11.5V14.17h2.73v17.71
		c0,4.95,3.93,8.97,8.77,8.97c4.83,0,8.77-4.02,8.77-8.97V14.17h2.73v17.71C324.19,38.11,318.92,43.38,312.69,43.38z M282.78,15.84
		c-6.89,0-12.28,5.5-12.28,12.5c0,7.01,5.39,12.5,12.28,12.5c6.89,0,12.28-5.49,12.28-12.5C295.06,21.34,289.67,15.84,282.78,15.84z
		 M282.78,43.38c-8.28,0-15.02-6.75-15.02-15.03c0-8.28,6.74-15.03,15.02-15.03s15.02,6.75,15.02,15.03
		C297.81,36.63,291.07,43.38,282.78,43.38z M239.26,36.52c-0.06,0.14-2.7,4.33-9.39,4.33c-6.79,0-12.12-5.22-12.12-12.5
		c0-7.22,5.32-12.5,12.12-12.5c6.32,0,9.07,4.1,9.7,4.98l1.98-1.65c-0.61-0.84-4.23-5.86-11.67-5.86c-8.19,0-14.86,6.37-14.86,15.03
		c0,8.53,6.66,15.03,14.86,15.03c7.63,0,11.73-5.57,12.14-6.12v-9.1h-11v2.53h8.25V36.52z M192.08,38.2h5.25
		c5.32,0,9.66-4.42,9.66-9.86c0-5.44-4.33-9.86-9.66-9.86h-5.25V38.2z M197.33,42.54h-9.99V14.15h9.99c7.8,0,14.39,6.5,14.39,14.2
		C211.72,36.04,205.13,42.54,197.33,42.54z M166.22,27.4h7.25c2.54,0,4.45-1.91,4.45-4.45c0-2.54-1.91-4.45-4.45-4.45h-7.25V27.4z
		 M183.57,42.52h-5.19l-6.01-10.78h-6.15v10.78h-4.74V14.17h11.99c5.23,0,9.18,3.78,9.18,8.78c0,5.62-4.56,7.88-5.54,8.3
		L183.57,42.52z M123.65,42.52h-4.05l-15.39-19.9v19.9h-4.74V14.17h3.97l15.47,19.91V14.17h4.74V42.52z M86.06,42.52l10.53-28.35
		h-7.64l-6.79,19.62l-6.79-19.62h-7.64l10.53,28.35H86.06z M36.31,14.17v6.19h-8.27v22.16h-6.87V20.36h-8.27v-6.19H36.31z
		 M56.06,14.17h-6.87v6.87h6.87V14.17z M58.98,30.12V14.17h6.87v17.03c0,7.08-5.65,12.15-13.23,12.15
		c-7.17,0-13.23-4.63-13.23-12.15V14.17h6.87v15.95c0,4.2,2.72,6.68,6.36,6.68C56.2,36.81,58.98,34.18,58.98,30.12z M142.58,43.38
		c-8.66,0-15.44-6.6-15.44-15.03s6.78-15.03,15.44-15.03c8.66,0,15.44,6.6,15.44,15.03S151.24,43.38,142.58,43.38z M142.58,17.66
		c-5.99,0-10.69,4.7-10.69,10.69c0,5.99,4.69,10.69,10.69,10.69c5.99,0,10.69-4.7,10.69-10.69
		C153.27,22.35,148.58,17.66,142.58,17.66z"/>
</g>
</svg>
