<?xml version="1.0" encoding="utf-8"?>
<!-- Generator: Adobe Illustrator 27.3.1, SVG Export Plug-In . SVG Version: 6.00 Build 0)  -->
<svg version="1.1" xmlns="http://www.w3.org/2000/svg" xmlns:xlink="http://www.w3.org/1999/xlink" x="0px" y="0px"
	 viewBox="0 0 175.7 45.4" style="enable-background:new 0 0 175.7 45.4;" xml:space="preserve">
<style type="text/css">
	.st0{fill:none;}
	.st1{fill-rule:evenodd;clip-rule:evenodd;fill:#001ED2;}
</style>
<g id="Background_x2C__BoundingBox">
	<rect y="0" class="st0" width="175.7" height="45.4"/>
</g>
<g id="TUeV_INDIA">
	<path class="st1" d="M45.9,16.8h-5.5v-5.5h5.5V16.8z M48.2,24c0,3.2-2.2,5.3-5.1,5.3c-2.9,0-5.1-2-5.1-5.3V11.3h-5.5v13.5
		c0,6,4.9,9.7,10.6,9.7c6.1,0,10.6-4.1,10.6-9.7V11.3h-5.5V24 M69.9,34l8.4-22.7h-6.1L66.7,27l-5.4-15.7h-6.1L63.6,34H69.9z
		 M11.3,11.3v4.9H18V34h5.5V16.3h6.6v-4.9H11.3z M165.6,34l-9.4-22.7h-3.7L143.2,34h4l2.4-5.9h9.7l2.4,5.9H165.6z M150.9,24.6
		l3.5-8.8l3.5,8.8H150.9z M121.9,34c6.2,0,11.5-5.2,11.5-11.3s-5.3-11.3-11.5-11.3h-8V34H121.9z M117.8,30.5V14.8h4.2
		c4.2,0,7.7,3.5,7.7,7.9c0,4.3-3.5,7.9-7.7,7.9H117.8z M140.7,34V11.3h-3.8V34H140.7z M84.4,34V11.3h-3.8V34H84.4z M108.9,34V11.3
		h-3.8v15.9L92.8,11.3h-3.2V34h3.8V18.1L105.6,34H108.9z"/>
</g>
</svg>
