<?xml version="1.0" encoding="UTF-8"?>
<!DOCTYPE svg PUBLIC "-//W3C//DTD SVG 1.1//EN" "http://www.w3.org/Graphics/SVG/1.1/DTD/svg11.dtd">
<svg version="1.1" xmlns="http://www.w3.org/2000/svg" xmlns:xlink="http://www.w3.org/1999/xlink" x="0" y="0" width="124" height="64" viewBox="0, 0, 124, 64">
  <g id="Background_x2C__BoundingBox">
    <path d="M-0,-0 L124,-0 L124,64 L-0,64 z" fill="#001ED2"/>
  </g>
  <g id="TUeV_INDIA">
    <path d="M32.356,43.879 L28.477,43.879 L28.477,40 L32.356,40 L32.356,43.879 z M34.004,48.923 C34.004,51.211 32.436,52.695 30.414,52.695 C28.357,52.695 26.825,51.293 26.825,48.923 L26.825,40 L22.944,40 L22.944,49.532 C22.944,53.779 26.368,56.39 30.414,56.39 C34.692,56.39 37.883,53.531 37.883,49.532 L37.883,40 L34.004,40 L34.004,48.923 M49.291,56 L55.234,40 L50.92,40 L47.088,51.072 L43.254,40 L38.94,40 L44.883,56 L49.291,56 z M8,40 L8,43.491 L12.666,43.491 L12.666,56 L16.545,56 L16.545,43.491 L21.21,43.491 L21.21,40 L8,40 z M116.874,56.001 L110.246,40 L107.633,40 L101.005,56.001 L103.81,56.001 L105.504,51.823 L112.375,51.823 L114.068,56.001 L116.874,56.001 z M106.484,49.372 L108.939,43.181 L111.394,49.372 L106.484,49.372 z M86.038,56.001 C90.436,56.001 94.152,52.337 94.152,48.001 C94.152,43.664 90.436,40 86.038,40 L80.409,40 L80.409,56.001 L86.038,56.001 z M83.086,53.549 L83.086,42.451 L86.039,42.451 C89.036,42.451 91.474,44.94 91.474,48.001 C91.474,51.06 89.036,53.549 86.039,53.549 L83.086,53.549 z M99.272,56.001 L99.272,40 L96.596,40 L96.596,56.001 L99.272,56.001 z M59.563,56.001 L59.563,40 L56.887,40 L56.887,56.001 L59.563,56.001 z M76.8,56.001 L76.8,40 L74.123,40 L74.123,51.218 L65.459,40 L63.172,40 L63.172,56.001 L65.848,56.001 L65.848,44.783 L74.511,56.001 L76.8,56.001 z" fill="#fffFFF"/>
  </g>
</svg>
