<?xml version="1.0" encoding="UTF-8"?>
<!DOCTYPE svg PUBLIC "-//W3C//DTD SVG 1.1//EN" "http://www.w3.org/Graphics/SVG/1.1/DTD/svg11.dtd">
<svg version="1.1" xmlns="http://www.w3.org/2000/svg" xmlns:xlink="http://www.w3.org/1999/xlink" x="0" y="0" width="254" height="40" viewBox="0, 0, 254, 40">
  <g id="BoundingBox"/>
  <g id="TUeV_NORD_GROUP">
    <path d="M175.547,11.784 L175.547,19.875 L181.587,19.875 C184.115,19.875 185.691,18.358 185.691,15.829 C185.691,13.301 184.115,11.784 181.587,11.784 L175.547,11.784 z M188.171,30 L185.988,30 L181.512,21.659 L175.547,21.659 L175.547,30 L173.618,30 L173.618,9.999 L181.587,9.999 C185.117,9.999 187.62,12.384 187.62,15.83 C187.62,20.308 183.619,21.364 183.577,21.376 L183.429,21.416 L188.171,30 z M234.098,11.784 L234.098,20.453 L239.707,20.453 C242.368,20.453 244.04,18.781 244.04,16.118 C244.04,13.455 242.368,11.784 239.707,11.784 L234.098,11.784 z M234.098,30 L232.171,30 L232.171,9.999 L239.707,9.999 C243.344,9.999 245.969,12.564 245.969,16.118 C245.969,19.674 243.344,22.237 239.707,22.237 L234.098,22.237 L234.098,30 z M220.617,30.606 C216.218,30.606 212.503,26.89 212.503,22.492 L212.503,9.999 L214.432,9.999 L214.432,22.492 C214.432,25.982 217.206,28.821 220.617,28.821 C224.028,28.821 226.802,25.982 226.802,22.492 L226.802,9.999 L228.731,9.999 L228.731,22.492 C228.731,26.89 225.016,30.606 220.617,30.606 z M199.519,11.179 C194.66,11.179 190.854,15.057 190.854,20 C190.854,24.945 194.66,28.821 199.519,28.821 C204.378,28.821 208.183,24.945 208.183,20 C208.183,15.057 204.378,11.179 199.519,11.179 z M199.519,30.607 C193.675,30.607 188.919,25.846 188.919,20 C188.919,14.157 193.675,9.395 199.519,9.395 C205.364,9.395 210.118,14.157 210.118,20 C210.118,25.846 205.364,30.607 199.519,30.607 z M168.811,25.766 C168.766,25.866 166.908,28.822 162.184,28.822 C157.39,28.822 153.635,25.135 153.635,20 C153.635,14.905 157.39,11.179 162.184,11.179 C166.643,11.179 168.582,14.073 169.026,14.695 L170.422,13.531 C169.991,12.936 167.438,9.395 162.188,9.395 C156.409,9.395 151.707,13.891 151.707,20 C151.707,26.017 156.409,30.606 162.188,30.606 C167.569,30.606 170.462,26.675 170.756,26.292 L170.756,19.874 L162.992,19.874 L162.992,21.659 L168.811,21.659 L168.811,25.766 z M135.52,26.955 L139.225,26.955 C142.98,26.955 146.038,23.835 146.038,19.999 C146.038,16.164 142.98,13.045 139.225,13.045 L135.52,13.045 L135.52,26.955 z M139.225,30.016 L132.177,30.016 L132.177,9.982 L139.225,9.982 C144.73,9.982 149.381,14.57 149.381,19.999 C149.381,25.428 144.73,30.016 139.225,30.016 z M117.274,19.334 L122.392,19.334 C124.181,19.334 125.528,17.985 125.528,16.197 C125.528,14.408 124.18,13.059 122.392,13.059 L117.274,13.059 L117.274,19.334 z M129.519,30 L125.859,30 L121.616,22.394 L117.274,22.394 L117.274,30 L113.931,30 L113.931,9.999 L122.392,9.999 C126.084,9.999 128.869,12.664 128.869,16.197 C128.869,20.161 125.648,21.758 124.962,22.053 L129.519,30 z M87.239,30 L84.379,30 L73.52,15.956 L73.52,30 L70.178,30 L70.178,9.999 L72.981,9.999 L83.896,24.044 L83.896,9.999 L87.239,9.999 L87.239,30 z M60.722,30 L68.15,9.999 L62.756,9.999 L57.966,23.839 L53.176,9.999 L47.782,9.999 L55.21,30 L60.722,30 z M25.62,9.999 L25.62,14.364 L19.788,14.364 L19.788,30 L14.94,30 L14.94,14.364 L9.108,14.364 L9.108,9.999 L25.62,9.999 z M39.551,9.999 L34.703,9.999 L34.703,14.848 L39.551,14.848 L39.551,9.999 z M41.612,21.255 L41.612,9.999 L46.461,9.999 L46.461,22.017 C46.461,27.012 42.473,30.588 37.125,30.588 C32.067,30.588 27.789,27.323 27.789,22.017 L27.789,9.999 L32.638,9.999 L32.638,21.255 C32.638,24.216 34.555,25.97 37.125,25.97 C39.652,25.97 41.612,24.113 41.612,21.255 z M100.599,30.606 C94.489,30.606 89.702,25.948 89.702,20 C89.702,14.053 94.489,9.395 100.599,9.395 C106.71,9.395 111.496,14.053 111.496,20 C111.496,25.948 106.71,30.606 100.599,30.606 z M100.599,12.458 C96.37,12.458 93.058,15.771 93.058,20 C93.058,24.229 96.37,27.542 100.599,27.542 C104.828,27.542 108.141,24.229 108.141,20 C108.141,15.771 104.828,12.458 100.599,12.458 z" fill="#001ED2"/>
  </g>
</svg>
